<?xml version="1.0" encoding="UTF-8"?>
<svg width="412px" height="29px" viewBox="0 0 412 29" version="1.1" xmlns="http://www.w3.org/2000/svg" xmlns:xlink="http://www.w3.org/1999/xlink">
    <title>CloudLocalStorage</title>
    <g id="Site" stroke="none" stroke-width="1" fill="none" fill-rule="evenodd">
        <g id="Main---Welcome" transform="translate(-424.000000, -260.000000)" fill="#000000" fill-rule="nonzero">
            <path d="M438.58,288.68 C444.74,288.68 448.34,285.6 448.34,285.6 L444.14,278.2 L444.091796,278.248445 C443.771736,278.560992 441.870909,280.28 438.78,280.28 C435.42,280.28 432.82,277.76 432.82,274.68 C432.82,271.6 435.3,269.08 438.58,269.08 C441.78,269.08 443.74,270.92 443.74,270.92 L447.94,263.52 C447.94,263.52 444.3,260.68 438.26,260.68 C430.62,260.68 424.18,266.16 424.18,274.68 C424.18,283 430.26,288.68 438.58,288.68 Z M465.58,288 L465.58,281 L458.22,281 L458.22,261.32 L449.34,261.32 L449.34,288 L465.58,288 Z M480.38,288.68 C488.1,288.68 494.38,282.4 494.38,274.68 C494.38,266.96 488.1,260.68 480.38,260.68 C472.66,260.68 466.38,266.96 466.38,274.68 C466.38,282.4 472.66,288.68 480.38,288.68 Z M480.38,280.28 C477.3,280.28 474.78,277.76 474.78,274.68 C474.78,271.6 477.3,269.08 480.38,269.08 C483.46,269.08 485.98,271.6 485.98,274.68 C485.98,277.76 483.46,280.28 480.38,280.28 Z M507.5,288.68 C514.22,288.68 518.58,285.32 518.58,278.28 L518.58,261.32 L510.02,261.32 L510.02,277.92 C510.02,279.8 509.3,280.8 507.5,280.8 C505.7,280.8 504.98,279.8 504.98,277.92 L504.98,261.32 L496.46,261.32 L496.46,278.28 C496.46,285.32 500.78,288.68 507.5,288.68 Z M528.66,288 C538.66,288 544.46,283.4 544.46,274.64 C544.46,265.84 538.66,261.32 528.66,261.32 L521.26,261.32 L521.26,288 L528.66,288 Z M529.78,280.4 L529.78,268.92 C533.74,268.92 536.06,270.76 536.06,274.64 C536.06,278.52 533.78,280.4 529.78,280.4 Z M570.9,288 L570.9,281 L563.54,281 L563.54,261.32 L554.66,261.32 L554.66,288 L570.9,288 Z M585.7,288.68 C593.42,288.68 599.7,282.4 599.7,274.68 C599.7,266.96 593.42,260.68 585.7,260.68 C577.98,260.68 571.7,266.96 571.7,274.68 C571.7,282.4 577.98,288.68 585.7,288.68 Z M585.7,280.28 C582.62,280.28 580.1,277.76 580.1,274.68 C580.1,271.6 582.62,269.08 585.7,269.08 C588.78,269.08 591.3,271.6 591.3,274.68 C591.3,277.76 588.78,280.28 585.7,280.28 Z M615.7,288.68 C621.86,288.68 625.46,285.6 625.46,285.6 L621.26,278.2 L621.211796,278.248445 C620.891736,278.560992 618.990909,280.28 615.9,280.28 C612.54,280.28 609.94,277.76 609.94,274.68 C609.94,271.6 612.42,269.08 615.7,269.08 C618.9,269.08 620.86,270.92 620.86,270.92 L625.06,263.52 C625.06,263.52 621.42,260.68 615.38,260.68 C607.74,260.68 601.3,266.16 601.3,274.68 C601.3,283 607.38,288.68 615.7,288.68 Z M632.66,288 L633.54,285.6 L641.62,285.6 L642.5,288 L650.9,288 L640.78,261.32 L634.38,261.32 L624.26,288 L632.66,288 Z M639.38,279.72 L635.78,279.72 L637.58,275.04 L639.38,279.72 Z M667.74,288 L667.74,281 L660.38,281 L660.38,261.32 L651.5,261.32 L651.5,288 L667.74,288 Z M683.66,288.68 C690.42,288.68 693.34,284.92 693.34,280.24 C693.34,273.56 686.18,270.8 686.18,269.44 C686.18,268.48 687.62,268.48 688.26,268.48 C689.38,268.48 690.54,268.68 690.54,268.68 L690.54,261.2 C690.54,261.2 687.78,260.68 685.18,260.68 C680.26,260.68 676.34,263.32 676.34,268.36 C676.34,275.04 683.98,277.16 683.98,279.24 C683.98,280.08 683.38,280.6 682.14,280.6 C679.46,280.6 676.42,279.72 676.42,279.72 L676.42,287.72 C676.42,287.72 679.7,288.68 683.66,288.68 Z M707.46,288 L707.46,268.32 L712.38,268.32 L712.38,261.32 L693.74,261.32 L693.74,268.32 L698.66,268.32 L698.66,288 L707.46,288 Z M727.18,288.68 C734.9,288.68 741.18,282.4 741.18,274.68 C741.18,266.96 734.9,260.68 727.18,260.68 C719.46,260.68 713.18,266.96 713.18,274.68 C713.18,282.4 719.46,288.68 727.18,288.68 Z M727.18,280.28 C724.1,280.28 721.58,277.76 721.58,274.68 C721.58,271.6 724.1,269.08 727.18,269.08 C730.26,269.08 732.78,271.6 732.78,274.68 C732.78,277.76 730.26,280.28 727.18,280.28 Z M751.9,288 L751.9,281.24 L755.9,288 L765.9,288 L760.9,279.2 C760.9,279.2 764.5,277 764.5,271.72 C764.5,264.96 759.38,261.32 752.58,261.32 L743.38,261.32 L743.38,288 L751.9,288 Z M752.34,274.44 L751.9,274.44 L751.9,268.52 L752.34,268.52 C754.38,268.52 755.98,269.36 755.98,271.48 C755.98,273.6 754.38,274.44 752.34,274.44 Z M772.9,288 L773.78,285.6 L781.86,285.6 L782.74,288 L791.14,288 L781.02,261.32 L774.62,261.32 L764.5,288 L772.9,288 Z M779.62,279.72 L776.02,279.72 L777.82,275.04 L779.62,279.72 Z M805.14,288.68 C810.42,288.68 815.02,285.72 817.42,281.4 L817.42,272.52 L807.14,272.52 L807.14,278.12 L809.54,278.12 C808.5,279.44 806.94,280.28 805.14,280.28 C802.06,280.28 799.54,277.92 799.54,274.68 C799.54,271.44 801.74,269.08 804.82,269.08 C806.18,269.08 807.78,269.56 808.74,270.4 L813.58,263.52 C813.58,263.52 810.66,260.68 804.74,260.68 C797.02,260.68 791.14,266.96 791.14,274.68 C791.14,282.56 797.42,288.68 805.14,288.68 Z M835.62,288 L835.62,281 L828.14,281 L828.14,277.92 L835.22,277.92 L835.22,271.28 L828.14,271.28 L828.14,268.32 L835.34,268.32 L835.34,261.32 L819.62,261.32 L819.62,288 L835.62,288 Z" id="CloudLocalStorage"></path>
        </g>
    </g>
</svg>